HIERARCHY
ROOT joint_0
{
	OFFSET 0.000000 0.000000 0.000000
	CHANNELS 6 Xposition Yposition Zposition Zrotation Yrotation Xrotation 
	JOINT joint_1
	{
		OFFSET 6.004005 -1.946999 100.587036
		CHANNELS 3 Zrotation Yrotation Xrotation
		JOINT joint_2
		{
			OFFSET -4.601006 -0.824997 91.925903
			CHANNELS 3 Zrotation Yrotation Xrotation
			JOINT joint_3
			{
				OFFSET -5.420998 -1.130005 91.774048
				CHANNELS 3 Zrotation Yrotation Xrotation
				JOINT joint_4
				{
					OFFSET 4.308998 -3.777992 123.473999
					CHANNELS 3 Zrotation Yrotation Xrotation
					JOINT joint_5
					{
						OFFSET 25.565002 -6.305008 79.437988
						CHANNELS 3 Zrotation Yrotation Xrotation
						End Site
						{
							OFFSET 0.000000 0.000000 0.000000
						}
					}
				}
				JOINT joint_6
				{
					OFFSET -1.750000 -28.655998 68.557983
					CHANNELS 3 Zrotation Yrotation Xrotation
					JOINT joint_7
					{
						OFFSET -17.692001 -116.544006 -17.244019
						CHANNELS 3 Zrotation Yrotation Xrotation
						JOINT joint_8
						{
							OFFSET 27.063004 -23.640991 -266.895020
							CHANNELS 3 Zrotation Yrotation Xrotation
							JOINT joint_9
							{
								OFFSET 40.722000 -15.761017 -232.488953
								CHANNELS 3 Zrotation Yrotation Xrotation
								End Site
								{
									OFFSET 0.000000 0.000000 0.000000
								}
							}
						}
					}
				}
				JOINT joint_10
				{
					OFFSET 6.593002 24.457001 69.892944
					CHANNELS 3 Zrotation Yrotation Xrotation
					JOINT joint_11
					{
						OFFSET 24.311996 114.920002 -19.872925
						CHANNELS 3 Zrotation Yrotation Xrotation
						JOINT joint_12
						{
							OFFSET 21.081001 15.319000 -268.037964
							CHANNELS 3 Zrotation Yrotation Xrotation
							JOINT joint_13
							{
								OFFSET 27.794006 -8.947001 -234.744080
								CHANNELS 3 Zrotation Yrotation Xrotation
								End Site
								{
									OFFSET 0.000000 0.000000 0.000000
								}
							}
						}
					}
				}
			}
		}
	}
	JOINT joint_14
	{
		OFFSET -6.627998 -80.520004 -98.790039
		CHANNELS 3 Zrotation Yrotation Xrotation
		JOINT joint_15
		{
			OFFSET -43.638000 -13.751999 -502.538971
			CHANNELS 3 Zrotation Yrotation Xrotation
			JOINT joint_16
			{
				OFFSET -39.532999 -9.912994 -398.071007
				CHANNELS 3 Zrotation Yrotation Xrotation
				JOINT joint_17
				{
					OFFSET 174.940004 -34.660995 -75.688002
					CHANNELS 3 Zrotation Yrotation Xrotation
					End Site
					{
						OFFSET 0.000000 0.000000 0.000000
					}
				}
			}
		}
	}
	JOINT joint_18
	{
		OFFSET 12.591003 79.842003 -98.765015
		CHANNELS 3 Zrotation Yrotation Xrotation
		JOINT joint_19
		{
			OFFSET -39.080002 -1.297001 -503.101013
			CHANNELS 3 Zrotation Yrotation Xrotation
			JOINT joint_20
			{
				OFFSET -51.570000 -0.514000 -396.815987
				CHANNELS 3 Zrotation Yrotation Xrotation
				JOINT joint_21
				{
					OFFSET 178.987999 -11.521999 -73.244003
					CHANNELS 3 Zrotation Yrotation Xrotation
					End Site
					{
						OFFSET 0.000000 0.000000 0.000000
					}
				}
			}
		}
	}
}
MOTION
Frames: 6
Frame Time: 0.016667
73.029000 -125.636000 1096.103030 -2.079640 -0.783693 -1.160511 0.657840 -0.375052 2.457102 0.511540 0.037495 -0.551522 0.566045 -0.031771 0.377356 0.013831 -0.533728 -0.174960 0.000000 0.000000 0.000000 1.738593 0.564041 0.279560 -0.145888 0.939438 -0.356148 -0.096114 0.294179 -0.434028 0.000000 0.000000 0.000000 0.655016 0.461909 0.354684 -0.047505 0.627583 -1.002694 0.045959 0.244560 0.466590 0.000000 0.000000 0.000000 -3.104225 0.950673 0.697131 -3.145467 2.814423 0.552061 -2.878389 -0.898943 -1.421469 0.000000 0.000000 0.000000 0.722632 -0.522591 2.381346 0.893815 2.645193 0.063153 0.858153 0.121525 0.358442 0.000000 0.000000 0.000000 
73.173000 -125.993000 1096.146970 -1.999859 -0.711063 -1.161946 0.731531 -0.368936 2.410997 0.588555 0.041772 -0.539246 0.641594 -0.042971 0.367871 -0.004289 -0.582972 -0.130991 0.000000 0.000000 0.000000 1.433214 0.623305 0.333594 -0.148904 0.977760 -0.458859 -0.057105 0.178534 -0.256541 0.000000 0.000000 0.000000 0.583288 0.416720 0.352842 -0.047606 0.588352 -0.974165 0.045059 0.241042 0.458019 0.000000 0.000000 0.000000 -3.132942 0.897907 0.719500 -3.174836 2.800218 0.571361 -2.904454 -0.906093 -1.434191 0.000000 0.000000 0.000000 0.699942 -0.594963 2.408936 0.874079 2.629836 0.052566 0.838059 0.137350 0.351247 0.000000 0.000000 0.000000 
73.386000 -126.445000 1096.229980 -1.874878 -0.617080 -1.162223 0.852743 -0.334637 2.341698 0.714824 0.050978 -0.514388 0.764666 -0.065622 0.345075 -0.029767 -0.646533 -0.067725 0.000000 0.000000 0.000000 0.913699 0.714353 0.417258 -0.152532 1.031842 -0.634503 0.008012 0.005093 0.047729 0.000000 0.000000 0.000000 0.468561 0.337413 0.347701 -0.049515 0.519212 -0.935180 0.044239 0.248651 0.453750 0.000000 0.000000 0.000000 -3.177463 0.840376 0.749616 -3.219193 2.767549 0.593333 -2.944723 -0.914659 -1.453348 0.000000 0.000000 0.000000 0.662527 -0.684789 2.440311 0.840052 2.603875 0.041154 0.804373 0.148341 0.338189 0.000000 0.000000 0.000000 
74.137000 -127.072000 1096.376950 -1.702196 -0.384459 -1.139853 0.963009 -0.350124 2.237971 0.833246 0.063408 -0.472519 0.878089 -0.096183 0.311558 -0.061280 -0.900055 -0.032908 0.000000 0.000000 0.000000 0.518002 0.920774 0.425672 -0.156542 1.178983 -0.616911 0.064430 -0.334750 0.238246 0.000000 0.000000 0.000000 0.425472 0.294100 0.450629 -0.043544 0.517589 -0.989069 0.043127 0.117580 0.402222 0.000000 0.000000 0.000000 -3.232641 0.698005 0.761078 -3.278405 2.670405 0.641643 -2.997940 -0.908280 -1.475185 0.000000 0.000000 0.000000 0.609358 -0.879292 2.474531 0.793047 2.532646 -0.003445 0.754105 0.176993 0.319499 0.000000 0.000000 0.000000 
75.818000 -127.960000 1096.604980 -1.474148 0.118449 -1.069265 1.031087 -0.484416 2.080283 0.915158 0.083362 -0.394637 0.950974 -0.139467 0.250844 -0.101465 -1.561974 -0.073658 0.000000 0.000000 0.000000 0.491414 1.362586 0.252980 -0.160185 1.515987 -0.120112 0.089954 -1.058753 0.105242 0.000000 0.000000 0.000000 0.558417 0.337767 0.799393 -0.019551 0.672264 -1.253258 0.039862 -0.337541 0.230019 0.000000 0.000000 0.000000 -3.286387 0.395395 0.716701 -3.346983 2.420177 0.760898 -3.056207 -0.874512 -1.493888 0.000000 0.000000 0.000000 0.525605 -1.270326 2.516184 0.721950 2.346737 -0.124542 0.671021 0.243200 0.289825 0.000000 0.000000 0.000000 
78.247000 -129.080000 1096.902950 -1.190449 0.843649 -0.955898 1.077064 -0.699793 1.875384 0.979758 0.111284 -0.284515 1.002653 -0.201473 0.162135 -0.148252 -2.570454 -0.184468 0.000000 0.000000 0.000000 0.705704 2.000099 -0.031202 -0.165503 2.012695 0.740336 0.094363 -2.119968 -0.270350 0.000000 0.000000 0.000000 0.839944 0.445497 1.339676 0.017183 0.940229 -1.667095 0.031263 -1.054099 -0.059348 0.000000 0.000000 0.000000 -3.339904 -0.032553 0.626232 -3.424155 2.031342 0.940206 -3.120467 -0.813389 -1.509794 0.000000 0.000000 0.000000 0.412032 -1.821658 2.566134 0.626872 2.057591 -0.311284 0.556525 0.345089 0.249603 0.000000 0.000000 0.000000 
